<?xml version="1.0" encoding="UTF-8" standalone="no"?>
<!-- Created with Inkscape (http://www.inkscape.org/) -->

<svg
   xmlns:dc="http://purl.org/dc/elements/1.1/"
   xmlns:cc="http://creativecommons.org/ns#"
   xmlns:rdf="http://www.w3.org/1999/02/22-rdf-syntax-ns#"
   xmlns:svg="http://www.w3.org/2000/svg"
   xmlns="http://www.w3.org/2000/svg"
   xmlns:sodipodi="http://sodipodi.sourceforge.net/DTD/sodipodi-0.dtd"
   xmlns:inkscape="http://www.inkscape.org/namespaces/inkscape"
   width="210mm"
   height="297mm"
   viewBox="0 0 210 297"
   version="1.1"
   id="svg8"
   inkscape:version="0.92.1 r"
   sodipodi:docname="icon.svg"
   inkscape:export-filename="/Users/therold/Uni/master-thesis/web-server/client/images/icon.png"
   inkscape:export-xdpi="367.74667"
   inkscape:export-ydpi="367.74667">
  <defs
     id="defs2" />
  <sodipodi:namedview
     id="base"
     pagecolor="#ffffff"
     bordercolor="#666666"
     borderopacity="1.0"
     inkscape:pageopacity="0.0"
     inkscape:pageshadow="2"
     inkscape:zoom="2.8"
     inkscape:cx="159.68653"
     inkscape:cy="916.15332"
     inkscape:document-units="mm"
     inkscape:current-layer="layer1"
     showgrid="false"
     inkscape:window-width="1391"
     inkscape:window-height="855"
     inkscape:window-x="0"
     inkscape:window-y="23"
     inkscape:window-maximized="0" />
  <metadata
     id="metadata5">
    <rdf:RDF>
      <cc:Work
         rdf:about="">
        <dc:format>image/svg+xml</dc:format>
        <dc:type
           rdf:resource="http://purl.org/dc/dcmitype/StillImage" />
        <dc:title></dc:title>
      </cc:Work>
    </rdf:RDF>
  </metadata>
  <g
     inkscape:label="Ebene 1"
     inkscape:groupmode="layer"
     id="layer1">
    <rect
       style="opacity:1;fill:#0084c8;fill-opacity:1;stroke:#009100;stroke-width:0.21166667;stroke-miterlimit:4;stroke-dasharray:none;stroke-dashoffset:0;stroke-opacity:1"
       id="rect4485"
       width="35.151791"
       height="35.151791"
       x="28.773438"
       y="37.305126"
       ry="17.575895"
       rx="17.575895" />
    <g
       id="g4596"
       transform="matrix(0.26458333,0,0,0.26458333,33.120167,41.651856)"
       style="fill:#ffffff">
      <path
         id="path4555"
         d="m 47.5,37.5 v 25 c 0,1.381 1.119,2.5 2.5,2.5 1.381,0 2.5,-1.119 2.5,-2.5 v -25 C 52.5,36.119 51.381,35 50,35 c -1.381,0 -2.5,1.119 -2.5,2.5 z"
         inkscape:connector-curvature="0"
         style="fill:#ffffff" />
      <path
         id="path4557"
         d="m 17.5,37.5 v 25 c 0,1.381 1.119,2.5 2.5,2.5 1.381,0 2.5,-1.119 2.5,-2.5 v -25 C 22.5,36.119 21.381,35 20,35 c -1.381,0 -2.5,1.119 -2.5,2.5 z"
         inkscape:connector-curvature="0"
         style="fill:#ffffff" />
      <path
         id="path4559"
         d="m 7.5,45 v 10 c 0,1.381 1.119,2.5 2.5,2.5 1.381,0 2.5,-1.119 2.5,-2.5 V 45 c 0,-1.381 -1.119,-2.5 -2.5,-2.5 -1.381,0 -2.5,1.119 -2.5,2.5 z"
         inkscape:connector-curvature="0"
         style="fill:#ffffff" />
      <path
         id="path4561"
         d="m 80,35 c -1.381,0 -2.5,1.119 -2.5,2.5 v 25 c 0,1.381 1.119,2.5 2.5,2.5 1.381,0 2.5,-1.119 2.5,-2.5 v -25 C 82.5,36.119 81.381,35 80,35 Z"
         inkscape:connector-curvature="0"
         style="fill:#ffffff" />
      <path
         id="path4563"
         d="m 57.5,45 v 10 c 0,1.381 1.119,2.5 2.5,2.5 1.381,0 2.5,-1.119 2.5,-2.5 V 45 c 0,-1.381 -1.119,-2.5 -2.5,-2.5 -1.381,0 -2.5,1.119 -2.5,2.5 z"
         inkscape:connector-curvature="0"
         style="fill:#ffffff" />
      <path
         id="path4565"
         d="m 87.5,27.5 v 45 c 0,1.381 1.119,2.5 2.5,2.5 1.381,0 2.5,-1.119 2.5,-2.5 v -45 C 92.5,26.119 91.381,25 90,25 c -1.381,0 -2.5,1.119 -2.5,2.5 z"
         inkscape:connector-curvature="0"
         style="fill:#ffffff" />
      <path
         id="path4567"
         d="m 37.5,17.5 v 65 c 0,1.381 1.119,2.5 2.5,2.5 1.381,0 2.5,-1.119 2.5,-2.5 v -65 C 42.5,16.119 41.381,15 40,15 c -1.381,0 -2.5,1.119 -2.5,2.5 z"
         inkscape:connector-curvature="0"
         style="fill:#ffffff" />
      <path
         id="path4569"
         d="m 27.5,22.5 v 55 c 0,1.381 1.119,2.5 2.5,2.5 1.381,0 2.5,-1.119 2.5,-2.5 v -55 C 32.5,21.119 31.381,20 30,20 c -1.381,0 -2.5,1.119 -2.5,2.5 z"
         inkscape:connector-curvature="0"
         style="fill:#ffffff" />
      <path
         id="path4571"
         d="m 67.5,32.5 v 35 c 0,1.381 1.119,2.5 2.5,2.5 1.381,0 2.5,-1.119 2.5,-2.5 v -35 C 72.5,31.119 71.381,30 70,30 c -1.381,0 -2.5,1.119 -2.5,2.5 z"
         inkscape:connector-curvature="0"
         style="fill:#ffffff" />
    </g>
  </g>
</svg>
