<?xml version="1.0" encoding="UTF-8" standalone="no"?>
<!-- Created with Inkscape (http://www.inkscape.org/) -->

<svg
   xmlns:dc="http://purl.org/dc/elements/1.1/"
   xmlns:cc="http://creativecommons.org/ns#"
   xmlns:rdf="http://www.w3.org/1999/02/22-rdf-syntax-ns#"
   xmlns:svg="http://www.w3.org/2000/svg"
   xmlns="http://www.w3.org/2000/svg"
   xmlns:sodipodi="http://sodipodi.sourceforge.net/DTD/sodipodi-0.dtd"
   xmlns:inkscape="http://www.inkscape.org/namespaces/inkscape"
   width="210mm"
   height="297mm"
   viewBox="0 0 744.09448819 1052.3622047"
   id="svg2"
   version="1.1"
   inkscape:version="0.91 r13725"
   sodipodi:docname="CNN.svg">
  <defs
     id="defs4" />
  <sodipodi:namedview
     id="base"
     pagecolor="#ffffff"
     bordercolor="#666666"
     borderopacity="1.0"
     inkscape:pageopacity="0.0"
     inkscape:pageshadow="2"
     inkscape:zoom="2"
     inkscape:cx="256.09917"
     inkscape:cy="451.58993"
     inkscape:document-units="px"
     inkscape:current-layer="layer1"
     showgrid="false"
     inkscape:window-width="1393"
     inkscape:window-height="855"
     inkscape:window-x="0"
     inkscape:window-y="1"
     inkscape:window-maximized="1" />
  <metadata
     id="metadata7">
    <rdf:RDF>
      <cc:Work
         rdf:about="">
        <dc:format>image/svg+xml</dc:format>
        <dc:type
           rdf:resource="http://purl.org/dc/dcmitype/StillImage" />
        <dc:title></dc:title>
      </cc:Work>
    </rdf:RDF>
  </metadata>
  <g
     inkscape:label="Ebene 1"
     inkscape:groupmode="layer"
     id="layer1">
    <path
       style="opacity:0.9;fill:#ececec;stroke:none;stroke-width:1;stroke-miterlimit:4;stroke-dasharray:none;stroke-opacity:1"
       d="m 41.305088,531.22449 391.358492,0 -92.5,41.74873 -221.85849,2.5 z"
       id="rect4737"
       inkscape:connector-curvature="0"
       sodipodi:nodetypes="ccccc" />
    <rect
       style="opacity:0.9;fill:#b3b3b3;fill-rule:evenodd;stroke:#000000;stroke-width:1.24505973;stroke-linecap:butt;stroke-linejoin:miter;stroke-miterlimit:4;stroke-dasharray:none;stroke-opacity:1"
       id="rect4414"
       width="98.964241"
       height="77.038567"
       x="40.337326"
       y="925.49597"
       transform="matrix(0.95026324,-0.31144787,0,1,0,0)" />
    <rect
       transform="matrix(0.95026324,-0.31144787,0,1,0,0)"
       y="930.90387"
       x="57.700935"
       height="77.038567"
       width="98.964241"
       id="rect4438"
       style="opacity:0.9;fill:#b3b3b3;fill-rule:evenodd;stroke:#000000;stroke-width:1.24505973;stroke-linecap:butt;stroke-linejoin:miter;stroke-miterlimit:4;stroke-dasharray:none;stroke-opacity:1" />
    <rect
       style="opacity:0.9;fill:#b3b3b3;fill-rule:evenodd;stroke:#000000;stroke-width:1.24505973;stroke-linecap:butt;stroke-linejoin:miter;stroke-miterlimit:4;stroke-dasharray:none;stroke-opacity:1"
       id="rect4440"
       width="98.964241"
       height="77.038567"
       x="80.326248"
       y="935.95044"
       transform="matrix(0.95026324,-0.31144787,0,1,0,0)" />
    <rect
       transform="matrix(0.95026324,-0.31144787,0,1,0,0)"
       y="942.51379"
       x="99.79454"
       height="77.038567"
       width="98.964241"
       id="rect4442"
       style="opacity:0.9;fill:#b3b3b3;fill-rule:evenodd;stroke:#000000;stroke-width:1.24505973;stroke-linecap:butt;stroke-linejoin:miter;stroke-miterlimit:4;stroke-dasharray:none;stroke-opacity:1" />
    <rect
       style="opacity:0.9;fill:#b3b3b3;fill-rule:evenodd;stroke:#000000;stroke-width:1.24505973;stroke-linecap:butt;stroke-linejoin:miter;stroke-miterlimit:4;stroke-dasharray:none;stroke-opacity:1"
       id="rect4446"
       width="98.964241"
       height="77.038567"
       x="118.73666"
       y="948.91327"
       transform="matrix(0.95026324,-0.31144787,0,1,0,0)" />
    <rect
       transform="matrix(0.95026324,-0.31144787,0,1,0,0)"
       y="956.30438"
       x="139.25728"
       height="77.038567"
       width="98.964241"
       id="rect4448"
       style="opacity:0.9;fill:#b3b3b3;fill-rule:evenodd;stroke:#000000;stroke-width:1.24505973;stroke-linecap:butt;stroke-linejoin:miter;stroke-miterlimit:4;stroke-dasharray:none;stroke-opacity:1" />
    <rect
       transform="matrix(0.95026324,-0.31144787,0,1,0,0)"
       y="961.53162"
       x="159.25174"
       height="77.038567"
       width="98.964241"
       id="rect4450"
       style="opacity:0.9;fill:#b3b3b3;fill-rule:evenodd;stroke:#000000;stroke-width:1.24505973;stroke-linecap:butt;stroke-linejoin:miter;stroke-miterlimit:4;stroke-dasharray:none;stroke-opacity:1" />
    <rect
       style="opacity:0.9;fill:#b3b3b3;fill-rule:evenodd;stroke:#000000;stroke-width:1.24505973;stroke-linecap:butt;stroke-linejoin:miter;stroke-miterlimit:4;stroke-dasharray:none;stroke-opacity:1"
       id="rect4452"
       width="98.964241"
       height="77.038567"
       x="176.61536"
       y="966.93951"
       transform="matrix(0.95026324,-0.31144787,0,1,0,0)" />
    <rect
       transform="matrix(0.95026324,-0.31144787,0,1,0,0)"
       y="971.98608"
       x="199.24066"
       height="77.038567"
       width="98.964241"
       id="rect4454"
       style="opacity:0.9;fill:#b3b3b3;fill-rule:evenodd;stroke:#000000;stroke-width:1.24505973;stroke-linecap:butt;stroke-linejoin:miter;stroke-miterlimit:4;stroke-dasharray:none;stroke-opacity:1" />
    <rect
       style="opacity:0.9;fill:#b3b3b3;fill-rule:evenodd;stroke:#000000;stroke-width:1.24505973;stroke-linecap:butt;stroke-linejoin:miter;stroke-miterlimit:4;stroke-dasharray:none;stroke-opacity:1"
       id="rect4456"
       width="98.964241"
       height="77.038567"
       x="218.70895"
       y="978.54944"
       transform="matrix(0.95026324,-0.31144787,0,1,0,0)" />
    <rect
       transform="matrix(0.95026324,-0.31144787,0,1,0,0)"
       y="984.94891"
       x="237.65108"
       height="77.038567"
       width="98.964241"
       id="rect4458"
       style="opacity:0.9;fill:#b3b3b3;fill-rule:evenodd;stroke:#000000;stroke-width:1.24505973;stroke-linecap:butt;stroke-linejoin:miter;stroke-miterlimit:4;stroke-dasharray:none;stroke-opacity:1" />
    <rect
       style="opacity:0.9;fill:#b3b3b3;fill-rule:evenodd;stroke:#000000;stroke-width:1.24505973;stroke-linecap:butt;stroke-linejoin:miter;stroke-miterlimit:4;stroke-dasharray:none;stroke-opacity:1"
       id="rect4460"
       width="98.964241"
       height="77.038567"
       x="258.17169"
       y="992.34003"
       transform="matrix(0.95026324,-0.31144787,0,1,0,0)" />
    <g
       id="g4486"
       transform="matrix(0.68020874,0,0,0.58513037,69.872945,359.40197)">
      <rect
         style="opacity:0.9;fill:#b3b3b3;fill-rule:evenodd;stroke:#000000;stroke-width:1.24505973;stroke-linecap:butt;stroke-linejoin:miter;stroke-miterlimit:4;stroke-dasharray:none;stroke-opacity:1"
         id="rect4462"
         width="98.964241"
         height="77.038567"
         x="41.915836"
         y="803.98761"
         transform="matrix(0.95026324,-0.31144787,0,1,0,0)" />
      <rect
         transform="matrix(0.95026324,-0.31144787,0,1,0,0)"
         y="809.39551"
         x="59.279446"
         height="77.038567"
         width="98.964241"
         id="rect4464"
         style="opacity:0.9;fill:#b3b3b3;fill-rule:evenodd;stroke:#000000;stroke-width:1.24505973;stroke-linecap:butt;stroke-linejoin:miter;stroke-miterlimit:4;stroke-dasharray:none;stroke-opacity:1" />
      <rect
         style="opacity:0.9;fill:#b3b3b3;fill-rule:evenodd;stroke:#000000;stroke-width:1.24505973;stroke-linecap:butt;stroke-linejoin:miter;stroke-miterlimit:4;stroke-dasharray:none;stroke-opacity:1"
         id="rect4466"
         width="98.964241"
         height="77.038567"
         x="81.904755"
         y="814.44208"
         transform="matrix(0.95026324,-0.31144787,0,1,0,0)" />
      <rect
         transform="matrix(0.95026324,-0.31144787,0,1,0,0)"
         y="821.00543"
         x="101.37305"
         height="77.038567"
         width="98.964241"
         id="rect4468"
         style="opacity:0.9;fill:#b3b3b3;fill-rule:evenodd;stroke:#000000;stroke-width:1.24505973;stroke-linecap:butt;stroke-linejoin:miter;stroke-miterlimit:4;stroke-dasharray:none;stroke-opacity:1" />
      <rect
         style="opacity:0.9;fill:#b3b3b3;fill-rule:evenodd;stroke:#000000;stroke-width:1.24505973;stroke-linecap:butt;stroke-linejoin:miter;stroke-miterlimit:4;stroke-dasharray:none;stroke-opacity:1"
         id="rect4470"
         width="98.964241"
         height="77.038567"
         x="120.31516"
         y="827.40491"
         transform="matrix(0.95026324,-0.31144787,0,1,0,0)" />
      <rect
         transform="matrix(0.95026324,-0.31144787,0,1,0,0)"
         y="834.79602"
         x="140.83578"
         height="77.038567"
         width="98.964241"
         id="rect4472"
         style="opacity:0.9;fill:#b3b3b3;fill-rule:evenodd;stroke:#000000;stroke-width:1.24505973;stroke-linecap:butt;stroke-linejoin:miter;stroke-miterlimit:4;stroke-dasharray:none;stroke-opacity:1" />
      <rect
         transform="matrix(0.95026324,-0.31144787,0,1,0,0)"
         y="840.02325"
         x="160.83025"
         height="77.038567"
         width="98.964241"
         id="rect4474"
         style="opacity:0.9;fill:#b3b3b3;fill-rule:evenodd;stroke:#000000;stroke-width:1.24505973;stroke-linecap:butt;stroke-linejoin:miter;stroke-miterlimit:4;stroke-dasharray:none;stroke-opacity:1" />
      <rect
         style="opacity:0.9;fill:#b3b3b3;fill-rule:evenodd;stroke:#000000;stroke-width:1.24505973;stroke-linecap:butt;stroke-linejoin:miter;stroke-miterlimit:4;stroke-dasharray:none;stroke-opacity:1"
         id="rect4476"
         width="98.964241"
         height="77.038567"
         x="178.19386"
         y="845.43115"
         transform="matrix(0.95026324,-0.31144787,0,1,0,0)" />
      <rect
         transform="matrix(0.95026324,-0.31144787,0,1,0,0)"
         y="850.47772"
         x="200.81917"
         height="77.038567"
         width="98.964241"
         id="rect4478"
         style="opacity:0.9;fill:#b3b3b3;fill-rule:evenodd;stroke:#000000;stroke-width:1.24505973;stroke-linecap:butt;stroke-linejoin:miter;stroke-miterlimit:4;stroke-dasharray:none;stroke-opacity:1" />
      <rect
         style="opacity:0.9;fill:#b3b3b3;fill-rule:evenodd;stroke:#000000;stroke-width:1.24505973;stroke-linecap:butt;stroke-linejoin:miter;stroke-miterlimit:4;stroke-dasharray:none;stroke-opacity:1"
         id="rect4480"
         width="98.964241"
         height="77.038567"
         x="220.28746"
         y="857.04108"
         transform="matrix(0.95026324,-0.31144787,0,1,0,0)" />
      <rect
         transform="matrix(0.95026324,-0.31144787,0,1,0,0)"
         y="863.44055"
         x="239.22958"
         height="77.038567"
         width="98.964241"
         id="rect4482"
         style="opacity:0.9;fill:#b3b3b3;fill-rule:evenodd;stroke:#000000;stroke-width:1.24505973;stroke-linecap:butt;stroke-linejoin:miter;stroke-miterlimit:4;stroke-dasharray:none;stroke-opacity:1" />
      <rect
         style="opacity:0.9;fill:#b3b3b3;fill-rule:evenodd;stroke:#000000;stroke-width:1.24505973;stroke-linecap:butt;stroke-linejoin:miter;stroke-miterlimit:4;stroke-dasharray:none;stroke-opacity:1"
         id="rect4484"
         width="98.964241"
         height="77.038567"
         x="259.75021"
         y="870.83167"
         transform="matrix(0.95026324,-0.31144787,0,1,0,0)" />
    </g>
    <g
       transform="matrix(0.68020874,0,0,0.58513037,-3.58647,258.91312)"
       id="g4521">
      <rect
         transform="matrix(0.95026324,-0.31144787,0,1,0,0)"
         y="803.98761"
         x="41.915836"
         height="77.038567"
         width="98.964241"
         id="rect4523"
         style="opacity:0.9;fill:#b3b3b3;fill-rule:evenodd;stroke:#000000;stroke-width:1.24505973;stroke-linecap:butt;stroke-linejoin:miter;stroke-miterlimit:4;stroke-dasharray:none;stroke-opacity:1" />
      <rect
         style="opacity:0.9;fill:#b3b3b3;fill-rule:evenodd;stroke:#000000;stroke-width:1.24505973;stroke-linecap:butt;stroke-linejoin:miter;stroke-miterlimit:4;stroke-dasharray:none;stroke-opacity:1"
         id="rect4525"
         width="98.964241"
         height="77.038567"
         x="59.279446"
         y="809.39551"
         transform="matrix(0.95026324,-0.31144787,0,1,0,0)" />
      <rect
         transform="matrix(0.95026324,-0.31144787,0,1,0,0)"
         y="814.44208"
         x="81.904755"
         height="77.038567"
         width="98.964241"
         id="rect4527"
         style="opacity:0.9;fill:#b3b3b3;fill-rule:evenodd;stroke:#000000;stroke-width:1.24505973;stroke-linecap:butt;stroke-linejoin:miter;stroke-miterlimit:4;stroke-dasharray:none;stroke-opacity:1" />
      <rect
         style="opacity:0.9;fill:#b3b3b3;fill-rule:evenodd;stroke:#000000;stroke-width:1.24505973;stroke-linecap:butt;stroke-linejoin:miter;stroke-miterlimit:4;stroke-dasharray:none;stroke-opacity:1"
         id="rect4529"
         width="98.964241"
         height="77.038567"
         x="101.37305"
         y="821.00543"
         transform="matrix(0.95026324,-0.31144787,0,1,0,0)" />
      <rect
         transform="matrix(0.95026324,-0.31144787,0,1,0,0)"
         y="827.40491"
         x="120.31516"
         height="77.038567"
         width="98.964241"
         id="rect4531"
         style="opacity:0.9;fill:#b3b3b3;fill-rule:evenodd;stroke:#000000;stroke-width:1.24505973;stroke-linecap:butt;stroke-linejoin:miter;stroke-miterlimit:4;stroke-dasharray:none;stroke-opacity:1" />
      <rect
         style="opacity:0.9;fill:#b3b3b3;fill-rule:evenodd;stroke:#000000;stroke-width:1.24505973;stroke-linecap:butt;stroke-linejoin:miter;stroke-miterlimit:4;stroke-dasharray:none;stroke-opacity:1"
         id="rect4533"
         width="98.964241"
         height="77.038567"
         x="140.83578"
         y="834.79602"
         transform="matrix(0.95026324,-0.31144787,0,1,0,0)" />
      <rect
         style="opacity:0.9;fill:#b3b3b3;fill-rule:evenodd;stroke:#000000;stroke-width:1.24505973;stroke-linecap:butt;stroke-linejoin:miter;stroke-miterlimit:4;stroke-dasharray:none;stroke-opacity:1"
         id="rect4535"
         width="98.964241"
         height="77.038567"
         x="160.83025"
         y="840.02325"
         transform="matrix(0.95026324,-0.31144787,0,1,0,0)" />
      <rect
         transform="matrix(0.95026324,-0.31144787,0,1,0,0)"
         y="845.43115"
         x="178.19386"
         height="77.038567"
         width="98.964241"
         id="rect4537"
         style="opacity:0.9;fill:#b3b3b3;fill-rule:evenodd;stroke:#000000;stroke-width:1.24505973;stroke-linecap:butt;stroke-linejoin:miter;stroke-miterlimit:4;stroke-dasharray:none;stroke-opacity:1" />
      <rect
         style="opacity:0.9;fill:#b3b3b3;fill-rule:evenodd;stroke:#000000;stroke-width:1.24505973;stroke-linecap:butt;stroke-linejoin:miter;stroke-miterlimit:4;stroke-dasharray:none;stroke-opacity:1"
         id="rect4539"
         width="98.964241"
         height="77.038567"
         x="200.81917"
         y="850.47772"
         transform="matrix(0.95026324,-0.31144787,0,1,0,0)" />
      <rect
         transform="matrix(0.95026324,-0.31144787,0,1,0,0)"
         y="857.04108"
         x="220.28746"
         height="77.038567"
         width="98.964241"
         id="rect4541"
         style="opacity:0.9;fill:#b3b3b3;fill-rule:evenodd;stroke:#000000;stroke-width:1.24505973;stroke-linecap:butt;stroke-linejoin:miter;stroke-miterlimit:4;stroke-dasharray:none;stroke-opacity:1" />
      <rect
         style="opacity:0.9;fill:#b3b3b3;fill-rule:evenodd;stroke:#000000;stroke-width:1.24505973;stroke-linecap:butt;stroke-linejoin:miter;stroke-miterlimit:4;stroke-dasharray:none;stroke-opacity:1"
         id="rect4543"
         width="98.964241"
         height="77.038567"
         x="239.22958"
         y="863.44055"
         transform="matrix(0.95026324,-0.31144787,0,1,0,0)" />
      <rect
         transform="matrix(0.95026324,-0.31144787,0,1,0,0)"
         y="870.83167"
         x="259.75021"
         height="77.038567"
         width="98.964241"
         id="rect4545"
         style="opacity:0.9;fill:#b3b3b3;fill-rule:evenodd;stroke:#000000;stroke-width:1.24505973;stroke-linecap:butt;stroke-linejoin:miter;stroke-miterlimit:4;stroke-dasharray:none;stroke-opacity:1" />
    </g>
    <g
       id="g4547"
       transform="matrix(0.68020874,0,0,0.58513037,147.02728,258.91312)">
      <rect
         style="opacity:0.9;fill:#b3b3b3;fill-rule:evenodd;stroke:#000000;stroke-width:1.24505973;stroke-linecap:butt;stroke-linejoin:miter;stroke-miterlimit:4;stroke-dasharray:none;stroke-opacity:1"
         id="rect4549"
         width="98.964241"
         height="77.038567"
         x="41.915836"
         y="803.98761"
         transform="matrix(0.95026324,-0.31144787,0,1,0,0)" />
      <rect
         transform="matrix(0.95026324,-0.31144787,0,1,0,0)"
         y="809.39551"
         x="59.279446"
         height="77.038567"
         width="98.964241"
         id="rect4551"
         style="opacity:0.9;fill:#b3b3b3;fill-rule:evenodd;stroke:#000000;stroke-width:1.24505973;stroke-linecap:butt;stroke-linejoin:miter;stroke-miterlimit:4;stroke-dasharray:none;stroke-opacity:1" />
      <rect
         style="opacity:0.9;fill:#b3b3b3;fill-rule:evenodd;stroke:#000000;stroke-width:1.24505973;stroke-linecap:butt;stroke-linejoin:miter;stroke-miterlimit:4;stroke-dasharray:none;stroke-opacity:1"
         id="rect4553"
         width="98.964241"
         height="77.038567"
         x="81.904755"
         y="814.44208"
         transform="matrix(0.95026324,-0.31144787,0,1,0,0)" />
      <rect
         transform="matrix(0.95026324,-0.31144787,0,1,0,0)"
         y="821.00543"
         x="101.37305"
         height="77.038567"
         width="98.964241"
         id="rect4555"
         style="opacity:0.9;fill:#b3b3b3;fill-rule:evenodd;stroke:#000000;stroke-width:1.24505973;stroke-linecap:butt;stroke-linejoin:miter;stroke-miterlimit:4;stroke-dasharray:none;stroke-opacity:1" />
      <rect
         style="opacity:0.9;fill:#b3b3b3;fill-rule:evenodd;stroke:#000000;stroke-width:1.24505973;stroke-linecap:butt;stroke-linejoin:miter;stroke-miterlimit:4;stroke-dasharray:none;stroke-opacity:1"
         id="rect4557"
         width="98.964241"
         height="77.038567"
         x="120.31516"
         y="827.40491"
         transform="matrix(0.95026324,-0.31144787,0,1,0,0)" />
      <rect
         transform="matrix(0.95026324,-0.31144787,0,1,0,0)"
         y="834.79602"
         x="140.83578"
         height="77.038567"
         width="98.964241"
         id="rect4559"
         style="opacity:0.9;fill:#b3b3b3;fill-rule:evenodd;stroke:#000000;stroke-width:1.24505973;stroke-linecap:butt;stroke-linejoin:miter;stroke-miterlimit:4;stroke-dasharray:none;stroke-opacity:1" />
      <rect
         transform="matrix(0.95026324,-0.31144787,0,1,0,0)"
         y="840.02325"
         x="160.83025"
         height="77.038567"
         width="98.964241"
         id="rect4561"
         style="opacity:0.9;fill:#b3b3b3;fill-rule:evenodd;stroke:#000000;stroke-width:1.24505973;stroke-linecap:butt;stroke-linejoin:miter;stroke-miterlimit:4;stroke-dasharray:none;stroke-opacity:1" />
      <rect
         style="opacity:0.9;fill:#b3b3b3;fill-rule:evenodd;stroke:#000000;stroke-width:1.24505973;stroke-linecap:butt;stroke-linejoin:miter;stroke-miterlimit:4;stroke-dasharray:none;stroke-opacity:1"
         id="rect4563"
         width="98.964241"
         height="77.038567"
         x="178.19386"
         y="845.43115"
         transform="matrix(0.95026324,-0.31144787,0,1,0,0)" />
      <rect
         transform="matrix(0.95026324,-0.31144787,0,1,0,0)"
         y="850.47772"
         x="200.81917"
         height="77.038567"
         width="98.964241"
         id="rect4565"
         style="opacity:0.9;fill:#b3b3b3;fill-rule:evenodd;stroke:#000000;stroke-width:1.24505973;stroke-linecap:butt;stroke-linejoin:miter;stroke-miterlimit:4;stroke-dasharray:none;stroke-opacity:1" />
      <rect
         style="opacity:0.9;fill:#b3b3b3;fill-rule:evenodd;stroke:#000000;stroke-width:1.24505973;stroke-linecap:butt;stroke-linejoin:miter;stroke-miterlimit:4;stroke-dasharray:none;stroke-opacity:1"
         id="rect4567"
         width="98.964241"
         height="77.038567"
         x="220.28746"
         y="857.04108"
         transform="matrix(0.95026324,-0.31144787,0,1,0,0)" />
      <rect
         transform="matrix(0.95026324,-0.31144787,0,1,0,0)"
         y="863.44055"
         x="239.22958"
         height="77.038567"
         width="98.964241"
         id="rect4569"
         style="opacity:0.9;fill:#b3b3b3;fill-rule:evenodd;stroke:#000000;stroke-width:1.24505973;stroke-linecap:butt;stroke-linejoin:miter;stroke-miterlimit:4;stroke-dasharray:none;stroke-opacity:1" />
      <rect
         style="opacity:0.9;fill:#b3b3b3;fill-rule:evenodd;stroke:#000000;stroke-width:1.24505973;stroke-linecap:butt;stroke-linejoin:miter;stroke-miterlimit:4;stroke-dasharray:none;stroke-opacity:1"
         id="rect4571"
         width="98.964241"
         height="77.038567"
         x="259.75021"
         y="870.83167"
         transform="matrix(0.95026324,-0.31144787,0,1,0,0)" />
    </g>
    <g
       id="g4573"
       transform="matrix(0.51572291,0,0,0.2824615,62.90478,433.42626)">
      <rect
         style="opacity:0.9;fill:#b3b3b3;fill-rule:evenodd;stroke:#000000;stroke-width:1.24505973;stroke-linecap:butt;stroke-linejoin:miter;stroke-miterlimit:4;stroke-dasharray:none;stroke-opacity:1"
         id="rect4575"
         width="98.964241"
         height="77.038567"
         x="41.915836"
         y="803.98761"
         transform="matrix(0.95026324,-0.31144787,0,1,0,0)" />
      <rect
         transform="matrix(0.95026324,-0.31144787,0,1,0,0)"
         y="809.39551"
         x="59.279446"
         height="77.038567"
         width="98.964241"
         id="rect4577"
         style="opacity:0.9;fill:#b3b3b3;fill-rule:evenodd;stroke:#000000;stroke-width:1.24505973;stroke-linecap:butt;stroke-linejoin:miter;stroke-miterlimit:4;stroke-dasharray:none;stroke-opacity:1" />
      <rect
         style="opacity:0.9;fill:#b3b3b3;fill-rule:evenodd;stroke:#000000;stroke-width:1.24505973;stroke-linecap:butt;stroke-linejoin:miter;stroke-miterlimit:4;stroke-dasharray:none;stroke-opacity:1"
         id="rect4579"
         width="98.964241"
         height="77.038567"
         x="81.904755"
         y="814.44208"
         transform="matrix(0.95026324,-0.31144787,0,1,0,0)" />
      <rect
         transform="matrix(0.95026324,-0.31144787,0,1,0,0)"
         y="821.00543"
         x="101.37305"
         height="77.038567"
         width="98.964241"
         id="rect4581"
         style="opacity:0.9;fill:#b3b3b3;fill-rule:evenodd;stroke:#000000;stroke-width:1.24505973;stroke-linecap:butt;stroke-linejoin:miter;stroke-miterlimit:4;stroke-dasharray:none;stroke-opacity:1" />
      <rect
         style="opacity:0.9;fill:#b3b3b3;fill-rule:evenodd;stroke:#000000;stroke-width:1.24505973;stroke-linecap:butt;stroke-linejoin:miter;stroke-miterlimit:4;stroke-dasharray:none;stroke-opacity:1"
         id="rect4583"
         width="98.964241"
         height="77.038567"
         x="120.31516"
         y="827.40491"
         transform="matrix(0.95026324,-0.31144787,0,1,0,0)" />
      <rect
         transform="matrix(0.95026324,-0.31144787,0,1,0,0)"
         y="834.79602"
         x="140.83578"
         height="77.038567"
         width="98.964241"
         id="rect4585"
         style="opacity:0.9;fill:#b3b3b3;fill-rule:evenodd;stroke:#000000;stroke-width:1.24505973;stroke-linecap:butt;stroke-linejoin:miter;stroke-miterlimit:4;stroke-dasharray:none;stroke-opacity:1" />
      <rect
         transform="matrix(0.95026324,-0.31144787,0,1,0,0)"
         y="840.02325"
         x="160.83025"
         height="77.038567"
         width="98.964241"
         id="rect4587"
         style="opacity:0.9;fill:#b3b3b3;fill-rule:evenodd;stroke:#000000;stroke-width:1.24505973;stroke-linecap:butt;stroke-linejoin:miter;stroke-miterlimit:4;stroke-dasharray:none;stroke-opacity:1" />
      <rect
         style="opacity:0.9;fill:#b3b3b3;fill-rule:evenodd;stroke:#000000;stroke-width:1.24505973;stroke-linecap:butt;stroke-linejoin:miter;stroke-miterlimit:4;stroke-dasharray:none;stroke-opacity:1"
         id="rect4589"
         width="98.964241"
         height="77.038567"
         x="178.19386"
         y="845.43115"
         transform="matrix(0.95026324,-0.31144787,0,1,0,0)" />
      <rect
         transform="matrix(0.95026324,-0.31144787,0,1,0,0)"
         y="850.47772"
         x="200.81917"
         height="77.038567"
         width="98.964241"
         id="rect4591"
         style="opacity:0.9;fill:#b3b3b3;fill-rule:evenodd;stroke:#000000;stroke-width:1.24505973;stroke-linecap:butt;stroke-linejoin:miter;stroke-miterlimit:4;stroke-dasharray:none;stroke-opacity:1" />
      <rect
         style="opacity:0.9;fill:#b3b3b3;fill-rule:evenodd;stroke:#000000;stroke-width:1.24505973;stroke-linecap:butt;stroke-linejoin:miter;stroke-miterlimit:4;stroke-dasharray:none;stroke-opacity:1"
         id="rect4593"
         width="98.964241"
         height="77.038567"
         x="220.28746"
         y="857.04108"
         transform="matrix(0.95026324,-0.31144787,0,1,0,0)" />
      <rect
         transform="matrix(0.95026324,-0.31144787,0,1,0,0)"
         y="863.44055"
         x="239.22958"
         height="77.038567"
         width="98.964241"
         id="rect4595"
         style="opacity:0.9;fill:#b3b3b3;fill-rule:evenodd;stroke:#000000;stroke-width:1.24505973;stroke-linecap:butt;stroke-linejoin:miter;stroke-miterlimit:4;stroke-dasharray:none;stroke-opacity:1" />
      <rect
         style="opacity:0.9;fill:#b3b3b3;fill-rule:evenodd;stroke:#000000;stroke-width:1.24505973;stroke-linecap:butt;stroke-linejoin:miter;stroke-miterlimit:4;stroke-dasharray:none;stroke-opacity:1"
         id="rect4597"
         width="98.964241"
         height="77.038567"
         x="259.75021"
         y="870.83167"
         transform="matrix(0.95026324,-0.31144787,0,1,0,0)" />
    </g>
    <g
       transform="matrix(0.51572291,0,0,0.2824615,177.09762,433.42626)"
       id="g4599">
      <rect
         transform="matrix(0.95026324,-0.31144787,0,1,0,0)"
         y="803.98761"
         x="41.915836"
         height="77.038567"
         width="98.964241"
         id="rect4601"
         style="opacity:0.9;fill:#b3b3b3;fill-rule:evenodd;stroke:#000000;stroke-width:1.24505973;stroke-linecap:butt;stroke-linejoin:miter;stroke-miterlimit:4;stroke-dasharray:none;stroke-opacity:1" />
      <rect
         style="opacity:0.9;fill:#b3b3b3;fill-rule:evenodd;stroke:#000000;stroke-width:1.24505973;stroke-linecap:butt;stroke-linejoin:miter;stroke-miterlimit:4;stroke-dasharray:none;stroke-opacity:1"
         id="rect4603"
         width="98.964241"
         height="77.038567"
         x="59.279446"
         y="809.39551"
         transform="matrix(0.95026324,-0.31144787,0,1,0,0)" />
      <rect
         transform="matrix(0.95026324,-0.31144787,0,1,0,0)"
         y="814.44208"
         x="81.904755"
         height="77.038567"
         width="98.964241"
         id="rect4605"
         style="opacity:0.9;fill:#b3b3b3;fill-rule:evenodd;stroke:#000000;stroke-width:1.24505973;stroke-linecap:butt;stroke-linejoin:miter;stroke-miterlimit:4;stroke-dasharray:none;stroke-opacity:1" />
      <rect
         style="opacity:0.9;fill:#b3b3b3;fill-rule:evenodd;stroke:#000000;stroke-width:1.24505973;stroke-linecap:butt;stroke-linejoin:miter;stroke-miterlimit:4;stroke-dasharray:none;stroke-opacity:1"
         id="rect4607"
         width="98.964241"
         height="77.038567"
         x="101.37305"
         y="821.00543"
         transform="matrix(0.95026324,-0.31144787,0,1,0,0)" />
      <rect
         transform="matrix(0.95026324,-0.31144787,0,1,0,0)"
         y="827.40491"
         x="120.31516"
         height="77.038567"
         width="98.964241"
         id="rect4609"
         style="opacity:0.9;fill:#b3b3b3;fill-rule:evenodd;stroke:#000000;stroke-width:1.24505973;stroke-linecap:butt;stroke-linejoin:miter;stroke-miterlimit:4;stroke-dasharray:none;stroke-opacity:1" />
      <rect
         style="opacity:0.9;fill:#b3b3b3;fill-rule:evenodd;stroke:#000000;stroke-width:1.24505973;stroke-linecap:butt;stroke-linejoin:miter;stroke-miterlimit:4;stroke-dasharray:none;stroke-opacity:1"
         id="rect4611"
         width="98.964241"
         height="77.038567"
         x="140.83578"
         y="834.79602"
         transform="matrix(0.95026324,-0.31144787,0,1,0,0)" />
      <rect
         style="opacity:0.9;fill:#b3b3b3;fill-rule:evenodd;stroke:#000000;stroke-width:1.24505973;stroke-linecap:butt;stroke-linejoin:miter;stroke-miterlimit:4;stroke-dasharray:none;stroke-opacity:1"
         id="rect4613"
         width="98.964241"
         height="77.038567"
         x="160.83025"
         y="840.02325"
         transform="matrix(0.95026324,-0.31144787,0,1,0,0)" />
      <rect
         transform="matrix(0.95026324,-0.31144787,0,1,0,0)"
         y="845.43115"
         x="178.19386"
         height="77.038567"
         width="98.964241"
         id="rect4615"
         style="opacity:0.9;fill:#b3b3b3;fill-rule:evenodd;stroke:#000000;stroke-width:1.24505973;stroke-linecap:butt;stroke-linejoin:miter;stroke-miterlimit:4;stroke-dasharray:none;stroke-opacity:1" />
      <rect
         style="opacity:0.9;fill:#b3b3b3;fill-rule:evenodd;stroke:#000000;stroke-width:1.24505973;stroke-linecap:butt;stroke-linejoin:miter;stroke-miterlimit:4;stroke-dasharray:none;stroke-opacity:1"
         id="rect4617"
         width="98.964241"
         height="77.038567"
         x="200.81917"
         y="850.47772"
         transform="matrix(0.95026324,-0.31144787,0,1,0,0)" />
      <rect
         transform="matrix(0.95026324,-0.31144787,0,1,0,0)"
         y="857.04108"
         x="220.28746"
         height="77.038567"
         width="98.964241"
         id="rect4619"
         style="opacity:0.9;fill:#b3b3b3;fill-rule:evenodd;stroke:#000000;stroke-width:1.24505973;stroke-linecap:butt;stroke-linejoin:miter;stroke-miterlimit:4;stroke-dasharray:none;stroke-opacity:1" />
      <rect
         style="opacity:0.9;fill:#b3b3b3;fill-rule:evenodd;stroke:#000000;stroke-width:1.24505973;stroke-linecap:butt;stroke-linejoin:miter;stroke-miterlimit:4;stroke-dasharray:none;stroke-opacity:1"
         id="rect4621"
         width="98.964241"
         height="77.038567"
         x="239.22958"
         y="863.44055"
         transform="matrix(0.95026324,-0.31144787,0,1,0,0)" />
      <rect
         transform="matrix(0.95026324,-0.31144787,0,1,0,0)"
         y="870.83167"
         x="259.75021"
         height="77.038567"
         width="98.964241"
         id="rect4623"
         style="opacity:0.9;fill:#b3b3b3;fill-rule:evenodd;stroke:#000000;stroke-width:1.24505973;stroke-linecap:butt;stroke-linejoin:miter;stroke-miterlimit:4;stroke-dasharray:none;stroke-opacity:1" />
    </g>
    <g
       transform="matrix(0.51572291,0,0,0.2824615,62.90478,433.42626)"
       id="g4625">
      <rect
         transform="matrix(0.95026324,-0.31144787,0,1,0,0)"
         y="803.98761"
         x="41.915836"
         height="77.038567"
         width="98.964241"
         id="rect4627"
         style="opacity:0.9;fill:#b3b3b3;fill-rule:evenodd;stroke:#000000;stroke-width:1.24505973;stroke-linecap:butt;stroke-linejoin:miter;stroke-miterlimit:4;stroke-dasharray:none;stroke-opacity:1" />
      <rect
         style="opacity:0.9;fill:#b3b3b3;fill-rule:evenodd;stroke:#000000;stroke-width:1.24505973;stroke-linecap:butt;stroke-linejoin:miter;stroke-miterlimit:4;stroke-dasharray:none;stroke-opacity:1"
         id="rect4629"
         width="98.964241"
         height="77.038567"
         x="59.279446"
         y="809.39551"
         transform="matrix(0.95026324,-0.31144787,0,1,0,0)" />
      <rect
         transform="matrix(0.95026324,-0.31144787,0,1,0,0)"
         y="814.44208"
         x="81.904755"
         height="77.038567"
         width="98.964241"
         id="rect4631"
         style="opacity:0.9;fill:#b3b3b3;fill-rule:evenodd;stroke:#000000;stroke-width:1.24505973;stroke-linecap:butt;stroke-linejoin:miter;stroke-miterlimit:4;stroke-dasharray:none;stroke-opacity:1" />
      <rect
         style="opacity:0.9;fill:#b3b3b3;fill-rule:evenodd;stroke:#000000;stroke-width:1.24505973;stroke-linecap:butt;stroke-linejoin:miter;stroke-miterlimit:4;stroke-dasharray:none;stroke-opacity:1"
         id="rect4633"
         width="98.964241"
         height="77.038567"
         x="101.37305"
         y="821.00543"
         transform="matrix(0.95026324,-0.31144787,0,1,0,0)" />
      <rect
         transform="matrix(0.95026324,-0.31144787,0,1,0,0)"
         y="827.40491"
         x="120.31516"
         height="77.038567"
         width="98.964241"
         id="rect4635"
         style="opacity:0.9;fill:#b3b3b3;fill-rule:evenodd;stroke:#000000;stroke-width:1.24505973;stroke-linecap:butt;stroke-linejoin:miter;stroke-miterlimit:4;stroke-dasharray:none;stroke-opacity:1" />
      <rect
         style="opacity:0.9;fill:#b3b3b3;fill-rule:evenodd;stroke:#000000;stroke-width:1.24505973;stroke-linecap:butt;stroke-linejoin:miter;stroke-miterlimit:4;stroke-dasharray:none;stroke-opacity:1"
         id="rect4637"
         width="98.964241"
         height="77.038567"
         x="140.83578"
         y="834.79602"
         transform="matrix(0.95026324,-0.31144787,0,1,0,0)" />
      <rect
         style="opacity:0.9;fill:#b3b3b3;fill-rule:evenodd;stroke:#000000;stroke-width:1.24505973;stroke-linecap:butt;stroke-linejoin:miter;stroke-miterlimit:4;stroke-dasharray:none;stroke-opacity:1"
         id="rect4639"
         width="98.964241"
         height="77.038567"
         x="160.83025"
         y="840.02325"
         transform="matrix(0.95026324,-0.31144787,0,1,0,0)" />
      <rect
         transform="matrix(0.95026324,-0.31144787,0,1,0,0)"
         y="845.43115"
         x="178.19386"
         height="77.038567"
         width="98.964241"
         id="rect4641"
         style="opacity:0.9;fill:#b3b3b3;fill-rule:evenodd;stroke:#000000;stroke-width:1.24505973;stroke-linecap:butt;stroke-linejoin:miter;stroke-miterlimit:4;stroke-dasharray:none;stroke-opacity:1" />
      <rect
         style="opacity:0.9;fill:#b3b3b3;fill-rule:evenodd;stroke:#000000;stroke-width:1.24505973;stroke-linecap:butt;stroke-linejoin:miter;stroke-miterlimit:4;stroke-dasharray:none;stroke-opacity:1"
         id="rect4643"
         width="98.964241"
         height="77.038567"
         x="200.81917"
         y="850.47772"
         transform="matrix(0.95026324,-0.31144787,0,1,0,0)" />
      <rect
         transform="matrix(0.95026324,-0.31144787,0,1,0,0)"
         y="857.04108"
         x="220.28746"
         height="77.038567"
         width="98.964241"
         id="rect4645"
         style="opacity:0.9;fill:#b3b3b3;fill-rule:evenodd;stroke:#000000;stroke-width:1.24505973;stroke-linecap:butt;stroke-linejoin:miter;stroke-miterlimit:4;stroke-dasharray:none;stroke-opacity:1" />
      <rect
         style="opacity:0.9;fill:#b3b3b3;fill-rule:evenodd;stroke:#000000;stroke-width:1.24505973;stroke-linecap:butt;stroke-linejoin:miter;stroke-miterlimit:4;stroke-dasharray:none;stroke-opacity:1"
         id="rect4647"
         width="98.964241"
         height="77.038567"
         x="239.22958"
         y="863.44055"
         transform="matrix(0.95026324,-0.31144787,0,1,0,0)" />
      <rect
         transform="matrix(0.95026324,-0.31144787,0,1,0,0)"
         y="870.83167"
         x="259.75021"
         height="77.038567"
         width="98.964241"
         id="rect4649"
         style="opacity:0.9;fill:#b3b3b3;fill-rule:evenodd;stroke:#000000;stroke-width:1.24505973;stroke-linecap:butt;stroke-linejoin:miter;stroke-miterlimit:4;stroke-dasharray:none;stroke-opacity:1" />
    </g>
    <g
       id="g4651"
       transform="matrix(0.51572291,0,0,0.2824615,177.09762,433.42626)">
      <rect
         style="opacity:0.9;fill:#b3b3b3;fill-rule:evenodd;stroke:#000000;stroke-width:1.24505973;stroke-linecap:butt;stroke-linejoin:miter;stroke-miterlimit:4;stroke-dasharray:none;stroke-opacity:1"
         id="rect4653"
         width="98.964241"
         height="77.038567"
         x="41.915836"
         y="803.98761"
         transform="matrix(0.95026324,-0.31144787,0,1,0,0)" />
      <rect
         transform="matrix(0.95026324,-0.31144787,0,1,0,0)"
         y="809.39551"
         x="59.279446"
         height="77.038567"
         width="98.964241"
         id="rect4655"
         style="opacity:0.9;fill:#b3b3b3;fill-rule:evenodd;stroke:#000000;stroke-width:1.24505973;stroke-linecap:butt;stroke-linejoin:miter;stroke-miterlimit:4;stroke-dasharray:none;stroke-opacity:1" />
      <rect
         style="opacity:0.9;fill:#b3b3b3;fill-rule:evenodd;stroke:#000000;stroke-width:1.24505973;stroke-linecap:butt;stroke-linejoin:miter;stroke-miterlimit:4;stroke-dasharray:none;stroke-opacity:1"
         id="rect4657"
         width="98.964241"
         height="77.038567"
         x="81.904755"
         y="814.44208"
         transform="matrix(0.95026324,-0.31144787,0,1,0,0)" />
      <rect
         transform="matrix(0.95026324,-0.31144787,0,1,0,0)"
         y="821.00543"
         x="101.37305"
         height="77.038567"
         width="98.964241"
         id="rect4659"
         style="opacity:0.9;fill:#b3b3b3;fill-rule:evenodd;stroke:#000000;stroke-width:1.24505973;stroke-linecap:butt;stroke-linejoin:miter;stroke-miterlimit:4;stroke-dasharray:none;stroke-opacity:1" />
      <rect
         style="opacity:0.9;fill:#b3b3b3;fill-rule:evenodd;stroke:#000000;stroke-width:1.24505973;stroke-linecap:butt;stroke-linejoin:miter;stroke-miterlimit:4;stroke-dasharray:none;stroke-opacity:1"
         id="rect4661"
         width="98.964241"
         height="77.038567"
         x="120.31516"
         y="827.40491"
         transform="matrix(0.95026324,-0.31144787,0,1,0,0)" />
      <rect
         transform="matrix(0.95026324,-0.31144787,0,1,0,0)"
         y="834.79602"
         x="140.83578"
         height="77.038567"
         width="98.964241"
         id="rect4663"
         style="opacity:0.9;fill:#b3b3b3;fill-rule:evenodd;stroke:#000000;stroke-width:1.24505973;stroke-linecap:butt;stroke-linejoin:miter;stroke-miterlimit:4;stroke-dasharray:none;stroke-opacity:1" />
      <rect
         transform="matrix(0.95026324,-0.31144787,0,1,0,0)"
         y="840.02325"
         x="160.83025"
         height="77.038567"
         width="98.964241"
         id="rect4665"
         style="opacity:0.9;fill:#b3b3b3;fill-rule:evenodd;stroke:#000000;stroke-width:1.24505973;stroke-linecap:butt;stroke-linejoin:miter;stroke-miterlimit:4;stroke-dasharray:none;stroke-opacity:1" />
      <rect
         style="opacity:0.9;fill:#b3b3b3;fill-rule:evenodd;stroke:#000000;stroke-width:1.24505973;stroke-linecap:butt;stroke-linejoin:miter;stroke-miterlimit:4;stroke-dasharray:none;stroke-opacity:1"
         id="rect4667"
         width="98.964241"
         height="77.038567"
         x="178.19386"
         y="845.43115"
         transform="matrix(0.95026324,-0.31144787,0,1,0,0)" />
      <rect
         transform="matrix(0.95026324,-0.31144787,0,1,0,0)"
         y="850.47772"
         x="200.81917"
         height="77.038567"
         width="98.964241"
         id="rect4669"
         style="opacity:0.9;fill:#b3b3b3;fill-rule:evenodd;stroke:#000000;stroke-width:1.24505973;stroke-linecap:butt;stroke-linejoin:miter;stroke-miterlimit:4;stroke-dasharray:none;stroke-opacity:1" />
      <rect
         style="opacity:0.9;fill:#b3b3b3;fill-rule:evenodd;stroke:#000000;stroke-width:1.24505973;stroke-linecap:butt;stroke-linejoin:miter;stroke-miterlimit:4;stroke-dasharray:none;stroke-opacity:1"
         id="rect4671"
         width="98.964241"
         height="77.038567"
         x="220.28746"
         y="857.04108"
         transform="matrix(0.95026324,-0.31144787,0,1,0,0)" />
      <rect
         transform="matrix(0.95026324,-0.31144787,0,1,0,0)"
         y="863.44055"
         x="239.22958"
         height="77.038567"
         width="98.964241"
         id="rect4673"
         style="opacity:0.9;fill:#b3b3b3;fill-rule:evenodd;stroke:#000000;stroke-width:1.24505973;stroke-linecap:butt;stroke-linejoin:miter;stroke-miterlimit:4;stroke-dasharray:none;stroke-opacity:1" />
      <rect
         style="opacity:0.9;fill:#b3b3b3;fill-rule:evenodd;stroke:#000000;stroke-width:1.24505973;stroke-linecap:butt;stroke-linejoin:miter;stroke-miterlimit:4;stroke-dasharray:none;stroke-opacity:1"
         id="rect4675"
         width="98.964241"
         height="77.038567"
         x="259.75021"
         y="870.83167"
         transform="matrix(0.95026324,-0.31144787,0,1,0,0)" />
    </g>
    <rect
       style="opacity:0.9;fill:#b3b3b3;stroke:#000000;stroke-width:1.01583314;stroke-miterlimit:4;stroke-dasharray:none;stroke-opacity:1"
       id="rect4677"
       width="21.890265"
       height="21.920311"
       x="121.00093"
       y="602.20282"
       transform="matrix(0.96907022,-0.24678516,0,1,0,0)" />
    <rect
       transform="matrix(0.96907022,-0.24678516,0,1,0,0)"
       y="603.97571"
       x="127.69319"
       height="21.920311"
       width="21.890265"
       id="rect4681"
       style="opacity:0.9;fill:#b3b3b3;stroke:#000000;stroke-width:1.01583314;stroke-miterlimit:4;stroke-dasharray:none;stroke-opacity:1" />
    <rect
       style="opacity:0.9;fill:#b3b3b3;stroke:#000000;stroke-width:1.01583314;stroke-miterlimit:4;stroke-dasharray:none;stroke-opacity:1"
       id="rect4683"
       width="21.890265"
       height="21.920311"
       x="135.71962"
       y="606.31006"
       transform="matrix(0.96907022,-0.24678516,0,1,0,0)" />
    <rect
       transform="matrix(0.96907022,-0.24678516,0,1,0,0)"
       y="607.98944"
       x="143.01639"
       height="21.920311"
       width="21.890265"
       id="rect4685"
       style="opacity:0.9;fill:#b3b3b3;stroke:#000000;stroke-width:1.01583314;stroke-miterlimit:4;stroke-dasharray:none;stroke-opacity:1" />
    <rect
       style="opacity:0.9;fill:#b3b3b3;stroke:#000000;stroke-width:1.01583314;stroke-miterlimit:4;stroke-dasharray:none;stroke-opacity:1"
       id="rect4687"
       width="21.890265"
       height="21.920311"
       x="151.77248"
       y="610.27167"
       transform="matrix(0.96907022,-0.24678516,0,1,0,0)" />
    <rect
       transform="matrix(0.96907022,-0.24678516,0,1,0,0)"
       y="612.60602"
       x="159.7989"
       height="21.920311"
       width="21.890265"
       id="rect4689"
       style="opacity:0.9;fill:#b3b3b3;stroke:#000000;stroke-width:1.01583314;stroke-miterlimit:4;stroke-dasharray:none;stroke-opacity:1" />
    <rect
       transform="matrix(0.96907022,-0.24678516,0,1,0,0)"
       y="614.45886"
       x="166.366"
       height="21.920311"
       width="21.890265"
       id="rect4691"
       style="opacity:0.9;fill:#b3b3b3;stroke:#000000;stroke-width:1.01583314;stroke-miterlimit:4;stroke-dasharray:none;stroke-opacity:1" />
    <rect
       style="opacity:0.9;fill:#b3b3b3;stroke:#000000;stroke-width:1.01583314;stroke-miterlimit:4;stroke-dasharray:none;stroke-opacity:1"
       id="rect4693"
       width="21.890265"
       height="21.920311"
       x="175.1221"
       y="616.74109"
       transform="matrix(0.96907022,-0.24678516,0,1,0,0)" />
    <rect
       transform="matrix(0.96907022,-0.24678516,0,1,0,0)"
       y="619.07544"
       x="183.14851"
       height="21.920311"
       width="21.890265"
       id="rect4695"
       style="opacity:0.9;fill:#b3b3b3;stroke:#000000;stroke-width:1.01583314;stroke-miterlimit:4;stroke-dasharray:none;stroke-opacity:1" />
    <rect
       style="opacity:0.9;fill:#b3b3b3;stroke:#000000;stroke-width:1.01583314;stroke-miterlimit:4;stroke-dasharray:none;stroke-opacity:1"
       id="rect4697"
       width="21.890265"
       height="21.920311"
       x="190.44528"
       y="620.75482"
       transform="matrix(0.96907022,-0.24678516,0,1,0,0)" />
    <rect
       transform="matrix(0.96907022,-0.24678516,0,1,0,0)"
       y="623.03705"
       x="199.20139"
       height="21.920311"
       width="21.890265"
       id="rect4699"
       style="opacity:0.9;fill:#b3b3b3;stroke:#000000;stroke-width:1.01583314;stroke-miterlimit:4;stroke-dasharray:none;stroke-opacity:1" />
    <rect
       style="opacity:0.9;fill:#b3b3b3;stroke:#000000;stroke-width:1.01583314;stroke-miterlimit:4;stroke-dasharray:none;stroke-opacity:1"
       id="rect4701"
       width="21.890265"
       height="21.920311"
       x="207.22781"
       y="625.3714"
       transform="matrix(0.96907022,-0.24678516,0,1,0,0)" />
    <rect
       style="opacity:0.9;fill:#b3b3b3;stroke:#000000;stroke-width:1.01583314;stroke-miterlimit:4;stroke-dasharray:none;stroke-opacity:1"
       id="rect4703"
       width="21.890265"
       height="21.920311"
       x="214.52458"
       y="626.69727"
       transform="matrix(0.96907022,-0.24678516,0,1,0,0)" />
    <rect
       transform="matrix(0.96907022,-0.24678516,0,1,0,0)"
       y="628.97949"
       x="223.28069"
       height="21.920311"
       width="21.890265"
       id="rect4705"
       style="opacity:0.9;fill:#b3b3b3;stroke:#000000;stroke-width:1.01583314;stroke-miterlimit:4;stroke-dasharray:none;stroke-opacity:1" />
    <rect
       style="opacity:0.9;fill:#b3b3b3;stroke:#000000;stroke-width:1.01583314;stroke-miterlimit:4;stroke-dasharray:none;stroke-opacity:1"
       id="rect4707"
       width="21.890265"
       height="21.920311"
       x="231.3071"
       y="631.31384"
       transform="matrix(0.96907022,-0.24678516,0,1,0,0)" />
    <rect
       transform="matrix(0.96907022,-0.24678516,0,1,0,0)"
       y="632.99323"
       x="238.60387"
       height="21.920311"
       width="21.890265"
       id="rect4709"
       style="opacity:0.9;fill:#b3b3b3;stroke:#000000;stroke-width:1.01583314;stroke-miterlimit:4;stroke-dasharray:none;stroke-opacity:1" />
    <rect
       style="opacity:0.9;fill:#b3b3b3;stroke:#000000;stroke-width:1.01583314;stroke-miterlimit:4;stroke-dasharray:none;stroke-opacity:1"
       id="rect4711"
       width="21.890265"
       height="21.920311"
       x="247.35997"
       y="635.27545"
       transform="matrix(0.96907022,-0.24678516,0,1,0,0)" />
    <rect
       transform="matrix(0.96907022,-0.24678516,0,1,0,0)"
       y="637.6098"
       x="255.38641"
       height="21.920311"
       width="21.890265"
       id="rect4713"
       style="opacity:0.9;fill:#b3b3b3;stroke:#000000;stroke-width:1.01583314;stroke-miterlimit:4;stroke-dasharray:none;stroke-opacity:1" />
    <rect
       transform="matrix(0.96907022,-0.24678516,0,1,0,0)"
       y="638.85876"
       x="265.23703"
       height="21.920311"
       width="21.890265"
       id="rect4715"
       style="opacity:0.9;fill:#b3b3b3;stroke:#000000;stroke-width:1.01583314;stroke-miterlimit:4;stroke-dasharray:none;stroke-opacity:1" />
    <rect
       style="opacity:0.9;fill:#b3b3b3;stroke:#000000;stroke-width:1.01583314;stroke-miterlimit:4;stroke-dasharray:none;stroke-opacity:1"
       id="rect4717"
       width="21.890265"
       height="21.920311"
       x="273.99313"
       y="641.14099"
       transform="matrix(0.96907022,-0.24678516,0,1,0,0)" />
    <rect
       transform="matrix(0.96907022,-0.24678516,0,1,0,0)"
       y="643.47534"
       x="282.01953"
       height="21.920311"
       width="21.890265"
       id="rect4719"
       style="opacity:0.9;fill:#b3b3b3;stroke:#000000;stroke-width:1.01583314;stroke-miterlimit:4;stroke-dasharray:none;stroke-opacity:1" />
    <rect
       style="opacity:0.9;fill:#b3b3b3;stroke:#000000;stroke-width:1.01583314;stroke-miterlimit:4;stroke-dasharray:none;stroke-opacity:1"
       id="rect4721"
       width="21.890265"
       height="21.920311"
       x="289.31631"
       y="645.15472"
       transform="matrix(0.96907022,-0.24678516,0,1,0,0)" />
    <rect
       transform="matrix(0.96907022,-0.24678516,0,1,0,0)"
       y="647.43695"
       x="298.07242"
       height="21.920311"
       width="21.890265"
       id="rect4723"
       style="opacity:0.9;fill:#b3b3b3;stroke:#000000;stroke-width:1.01583314;stroke-miterlimit:4;stroke-dasharray:none;stroke-opacity:1" />
    <rect
       style="opacity:0.9;fill:#b3b3b3;stroke:#000000;stroke-width:1.01583314;stroke-miterlimit:4;stroke-dasharray:none;stroke-opacity:1"
       id="rect4725"
       width="21.890265"
       height="21.920311"
       x="306.09885"
       y="649.7713"
       transform="matrix(0.96907022,-0.24678516,0,1,0,0)" />
    <rect
       style="opacity:0.9;fill:#b3b3b3;stroke:#000000;stroke-width:1.01583314;stroke-miterlimit:4;stroke-dasharray:none;stroke-opacity:1"
       id="rect4727"
       width="21.890265"
       height="21.920311"
       x="315.58463"
       y="651.75873"
       transform="matrix(0.96907022,-0.24678516,0,1,0,0)" />
    <rect
       transform="matrix(0.96907022,-0.24678516,0,1,0,0)"
       y="654.09308"
       x="323.61105"
       height="21.920311"
       width="21.890265"
       id="rect4729"
       style="opacity:0.9;fill:#b3b3b3;stroke:#000000;stroke-width:1.01583314;stroke-miterlimit:4;stroke-dasharray:none;stroke-opacity:1" />
    <rect
       style="opacity:0.9;fill:#b3b3b3;stroke:#000000;stroke-width:1.01583314;stroke-miterlimit:4;stroke-dasharray:none;stroke-opacity:1"
       id="rect4731"
       width="21.890265"
       height="21.920311"
       x="330.17813"
       y="656.42084"
       transform="matrix(0.96907022,-0.24678516,0,1,0,0)" />
    <rect
       transform="matrix(0.99999979,6.4482692e-4,0,1,0,0)"
       y="511.18259"
       x="41.821823"
       height="19.563133"
       width="390.11795"
       id="rect4735"
       style="opacity:0.9;fill:#b3b3b3;stroke:#000000;stroke-width:1.33127058;stroke-miterlimit:4;stroke-dasharray:none;stroke-opacity:1" />
  </g>
</svg>
