<?xml version="1.0" encoding="UTF-8" standalone="no"?>
<!-- Created with Inkscape (http://www.inkscape.org/) -->

<svg
   xmlns:dc="http://purl.org/dc/elements/1.1/"
   xmlns:cc="http://creativecommons.org/ns#"
   xmlns:rdf="http://www.w3.org/1999/02/22-rdf-syntax-ns#"
   xmlns:svg="http://www.w3.org/2000/svg"
   xmlns="http://www.w3.org/2000/svg"
   xmlns:sodipodi="http://sodipodi.sourceforge.net/DTD/sodipodi-0.dtd"
   xmlns:inkscape="http://www.inkscape.org/namespaces/inkscape"
   width="210mm"
   height="297mm"
   viewBox="0 0 744.09448819 1052.3622047"
   id="svg5217"
   version="1.1"
   inkscape:version="0.91 r13725"
   sodipodi:docname="convnet.svg">
  <defs
     id="defs5219" />
  <sodipodi:namedview
     id="base"
     pagecolor="#ffffff"
     bordercolor="#666666"
     borderopacity="1.0"
     inkscape:pageopacity="0.0"
     inkscape:pageshadow="2"
     inkscape:zoom="2.8284271"
     inkscape:cx="527.91014"
     inkscape:cy="775.13598"
     inkscape:document-units="px"
     inkscape:current-layer="layer1"
     showgrid="false"
     inkscape:window-width="1391"
     inkscape:window-height="855"
     inkscape:window-x="0"
     inkscape:window-y="0"
     inkscape:window-maximized="0" />
  <metadata
     id="metadata5222">
    <rdf:RDF>
      <cc:Work
         rdf:about="">
        <dc:format>image/svg+xml</dc:format>
        <dc:type
           rdf:resource="http://purl.org/dc/dcmitype/StillImage" />
        <dc:title></dc:title>
      </cc:Work>
    </rdf:RDF>
  </metadata>
  <g
     inkscape:label="Ebene 1"
     inkscape:groupmode="layer"
     id="layer1">
    <rect
       style="opacity:1;fill:none;fill-opacity:1;stroke:#000000;stroke-width:1;stroke-miterlimit:4;stroke-dasharray:none;stroke-dashoffset:0;stroke-opacity:1"
       id="rect6313"
       width="65.389473"
       height="65.389473"
       x="133.22694"
       y="306.47156" />
    <g
       id="g6489"
       transform="translate(59.034508,242.61883)">
      <g
         id="g6639"
         transform="matrix(0.47599314,0,0,0.47599314,80.619748,78.396679)">
        <path
           style="fill:none"
           inkscape:connector-curvature="0"
           d="m 44.645,40.666 c 0,-0.307 0,-0.648 0,-0.942 0,0.38 0,0.694 0,0.942 z"
           id="path6493" />
        <path
           style="fill:none"
           inkscape:connector-curvature="0"
           d="m 38.913,54.084 c 0,0.209 0.091,0.471 0.228,0.706 0.136,0.235 0.317,0.446 0.498,0.551 2.558,1.478 5.032,2.904 7.59,4.382 l 0.003,0.008 0.009,0 c 2.559,1.478 5.031,2.904 7.59,4.384 0.18,0.104 0.453,0.155 0.725,0.153 0.272,0.002 0.544,-0.052 0.725,-0.153 2.558,-1.479 5.032,-2.905 7.59,-4.384 l 0.008,0 0.004,-0.008 c 2.559,-1.478 5.033,-2.904 7.59,-4.382 0.181,-0.104 0.362,-0.313 0.498,-0.551 0.136,-0.235 0.228,-0.497 0.228,-0.706 0,-2.953 -0.001,-5.811 0,-8.764 l 0.003,-0.008 -0.003,-0.008 0,-8.764 c 0,-0.209 -0.092,-0.471 -0.228,-0.707 -0.137,-0.235 -0.318,-0.445 -0.499,-0.55 -2.557,-1.478 -5.031,-2.905 -7.59,-4.383 l -0.004,-0.006 -0.008,0 c -2.558,-1.478 -5.032,-2.906 -7.59,-4.383 -0.181,-0.104 -0.453,-0.156 -0.725,-0.155 -0.272,-0.001 -0.545,0.051 -0.725,0.155 -2.559,1.477 -5.032,2.906 -7.59,4.383 l -0.008,0 -0.004,0.006 c -2.558,1.479 -5.032,2.906 -7.59,4.382 -0.18,0.105 -0.362,0.314 -0.497,0.551 -0.137,0.236 -0.228,0.498 -0.228,0.706 l 0,8.765 -0.003,0.006 0.003,0.01 0,8.764 z M 64.705,33.729 c -4.868,2.811 -9.738,5.62 -14.605,8.433 l 0,12.598 1.761,1.018 c 0,-4.198 -0.002,-8.398 -0.002,-12.598 4.869,-2.811 9.74,-5.617 14.606,-8.433 l 3.696,2.135 c -4.869,2.811 -9.739,5.62 -14.606,8.432 l 0,12.596 1.613,-0.932 0,-10.735 9.296,-5.369 3.695,-2.133 c -0.002,5 10e-4,10.002 10e-4,15.002 -4.869,2.812 -9.739,5.618 -14.605,8.433 L 53.393,60.928 51.859,60.042 50.1,59.027 46.404,56.892 c 0.005,-5.621 0,-11.242 0,-16.866 4.868,-2.811 9.74,-5.617 14.605,-8.433 l 3.696,2.136 z m -23.755,3.15 c 4.868,-2.812 9.739,-5.619 14.605,-8.433 l 3.696,2.134 c -4.869,2.811 -9.738,5.62 -14.606,8.433 -0.001,5.621 10e-4,11.243 10e-4,16.865 L 40.95,53.744 c 0.005,-5.622 0,-11.244 0,-16.865 z"
           id="path6495" />
        <path
           style="fill:none"
           inkscape:connector-curvature="0"
           d="m 44.645,39.013 c 0,0.059 0,0.11 0,0.167 0,-0.103 0,-0.167 0,-0.167 z"
           id="path6499" />
        <path
           style="fill:none"
           inkscape:connector-curvature="0"
           d="m 66.463,45.139 c -1.868,1.077 -3.735,2.156 -5.602,3.235 -0.002,2.157 -0.002,4.313 -0.002,6.472 l 5.604,-3.236 0,-6.471 z"
           id="path6501" />
        <rect
           style="fill:none"
           x="66.222"
           y="63.784"
           width="0.001"
           height="0.0049999999"
           id="rect6503" />
        <path
           style="fill:none"
           inkscape:connector-curvature="0"
           d="m 71.472,35.284 c 0,0 0.024,0.014 0.046,0.027 C 71.505,35.304 71.5,35.3 71.472,35.284 Z"
           id="path6505" />
        <path
           style="fill:#333d4d"
           inkscape:connector-curvature="0"
           d="m 12.26,73.018 24.305,-14.033 8.322,4.806 c 0,-0.002 10e-4,-0.003 0.002,-0.005 l 0,10e-4 c 0,10e-4 -0.001,0.002 -0.001,0.004 l 8.32,4.804 0,12.521 4.695,0 0,-12.523 8.321,-4.804 c -0.001,-0.001 -0.002,-0.003 -0.003,-0.004 l 0,-10e-4 10e-4,10e-4 0.002,0.004 8.322,-4.805 6.158,3.556 2.348,-4.065 -6.16,-3.557 0,-9.607 0,-9.607 26.563,-15.337 -2.348,-4.064 -26.564,15.335 -8.32,-4.804 -8.321,-4.805 0,-14.367 -4.695,0 0,14.369 -8.321,4.805 -8.321,4.804 -10.916,-6.303 -2.348,4.065 10.916,6.303 0,9.607 0.005,0 0,0.002 -0.004,0 -0.001,9.605 -24.305,14.034 2.348,4.065 z m 26.653,-27.713 0,-8.765 c 0,-0.208 0.091,-0.47 0.228,-0.706 0.135,-0.237 0.317,-0.446 0.497,-0.551 2.558,-1.476 5.032,-2.903 7.59,-4.382 l 0.004,-0.006 0.008,0 c 2.558,-1.477 5.031,-2.906 7.59,-4.383 0.18,-0.104 0.453,-0.156 0.725,-0.155 0.272,-10e-4 0.544,0.051 0.725,0.155 2.558,1.477 5.032,2.905 7.59,4.383 l 0.008,0 0.004,0.006 c 2.559,1.478 5.033,2.905 7.59,4.383 0.027,0.016 0.033,0.02 0.046,0.027 -0.022,-0.013 -0.046,-0.027 -0.046,-0.027 0.181,0.105 0.362,0.315 0.499,0.55 0.136,0.236 0.228,0.498 0.228,0.707 l 0,8.764 0.003,0.008 -0.003,0.008 c -0.001,2.953 0,5.811 0,8.764 0,0.209 -0.092,0.471 -0.228,0.706 -0.136,0.237 -0.317,0.446 -0.498,0.551 -2.557,1.478 -5.031,2.904 -7.59,4.382 l -0.004,0.008 -0.008,0 c -2.558,1.479 -5.032,2.904 -7.59,4.384 -0.181,0.102 -0.453,0.155 -0.725,0.153 -0.272,0.002 -0.545,-0.05 -0.725,-0.153 -2.559,-1.479 -5.031,-2.906 -7.59,-4.384 l -0.009,0 -0.003,-0.008 c -2.558,-1.478 -5.032,-2.904 -7.59,-4.382 -0.181,-0.104 -0.362,-0.315 -0.498,-0.551 -0.137,-0.235 -0.228,-0.497 -0.228,-0.706 l 0,-8.765 -0.003,-0.01 0.003,-0.005 z"
           id="path6567" />
        <circle
           style="fill:#333d4d"
           cx="106.02"
           cy="16.174999"
           r="2.348"
           id="circle6569" />
        <circle
           style="fill:#333d4d"
           cx="85.615997"
           cy="62.667"
           r="2.3469999"
           id="circle6571" />
        <circle
           style="fill:#333d4d"
           cx="20.738001"
           cy="25.209"
           r="2.348"
           id="circle6573" />
        <circle
           style="fill:#333d4d"
           cx="55.554001"
           cy="3.345"
           r="2.348"
           id="circle6575" />
        <circle
           style="fill:#333d4d"
           cx="7.3470001"
           cy="73.143997"
           r="2.3469999"
           id="circle6577" />
        <circle
           style="fill:#333d4d"
           cx="55.554001"
           cy="85.431999"
           r="2.3469999"
           id="circle6579" />
        <path
           style="fill:#333d4d"
           inkscape:connector-curvature="0"
           d="m 46.404,56.893 3.696,2.135 1.759,1.015 1.534,0.886 2.162,1.248 c 4.866,-2.814 9.736,-5.621 14.605,-8.433 0,-5 -0.003,-10.002 -10e-4,-15.002 l -3.695,2.133 -9.296,5.369 0,10.735 -1.613,0.932 0,-12.599 C 60.422,42.5 65.292,39.691 70.161,36.88 l -3.696,-2.135 c -4.866,2.816 -9.737,5.622 -14.606,8.433 0,4.2 0.002,8.4 0.002,12.598 L 50.1,54.76 l 0,-12.598 c 4.867,-2.813 9.737,-5.622 14.605,-8.433 l -3.696,-2.135 c -4.865,2.816 -9.737,5.622 -14.605,8.433 0,5.623 0.005,11.244 0,16.866 z m 14.457,-8.519 c 1.867,-1.079 3.734,-2.158 5.602,-3.235 l 0,6.471 -5.604,3.236 c 0,-2.158 0,-4.315 0.002,-6.472 z"
           id="path6581" />
        <path
           style="fill:#333d4d"
           inkscape:connector-curvature="0"
           d="m 44.645,39.013 c 0,0 0,0.063 0,0.167 0,-0.057 0,-0.108 0,-0.167 4.868,-2.813 9.737,-5.622 14.606,-8.433 l -3.696,-2.134 c -4.866,2.814 -9.737,5.621 -14.605,8.433 0,5.621 0.005,11.243 0,16.865 l 3.696,2.134 c 0,-5.622 -0.002,-11.244 -10e-4,-16.865 z m 0,0.711 c 0,0.293 0,0.635 0,0.942 0,-0.248 0,-0.562 0,-0.942 z"
           id="path6583" />
      </g>
    </g>
    <rect
       style="opacity:1;fill:#ffffff;fill-opacity:1;stroke:#000000;stroke-width:1;stroke-miterlimit:4;stroke-dasharray:none;stroke-dashoffset:0;stroke-opacity:1"
       id="rect6664"
       width="65.389473"
       height="65.389473"
       x="222.62654"
       y="282.47156" />
    <rect
       y="290.47156"
       x="230.62654"
       height="65.389473"
       width="65.389473"
       id="rect6662"
       style="opacity:1;fill:#ffffff;fill-opacity:1;stroke:#000000;stroke-width:1;stroke-miterlimit:4;stroke-dasharray:none;stroke-dashoffset:0;stroke-opacity:1" />
    <rect
       style="opacity:1;fill:#ffffff;fill-opacity:1;stroke:#000000;stroke-width:1;stroke-miterlimit:4;stroke-dasharray:none;stroke-dashoffset:0;stroke-opacity:1"
       id="rect6660"
       width="65.389473"
       height="65.389473"
       x="238.62654"
       y="298.47156" />
    <rect
       y="306.47156"
       x="246.62654"
       height="65.389473"
       width="65.389473"
       id="rect6656"
       style="opacity:1;fill:#ffffff;fill-opacity:1;stroke:#000000;stroke-width:1;stroke-miterlimit:4;stroke-dasharray:none;stroke-dashoffset:0;stroke-opacity:1" />
    <rect
       y="308.05246"
       x="349.20752"
       height="36.742172"
       width="36.742172"
       id="rect6685"
       style="opacity:1;fill:#ffffff;fill-opacity:1;stroke:#000000;stroke-width:1;stroke-miterlimit:4;stroke-dasharray:none;stroke-dashoffset:0;stroke-opacity:1" />
    <rect
       style="opacity:1;fill:#ffffff;fill-opacity:1;stroke:#000000;stroke-width:1;stroke-miterlimit:4;stroke-dasharray:none;stroke-dashoffset:0;stroke-opacity:1"
       id="rect6687"
       width="36.742172"
       height="36.742172"
       x="353.70267"
       y="312.54761" />
    <rect
       y="272.05246"
       x="403.20755"
       height="36.742172"
       width="36.742172"
       id="rect6709"
       style="opacity:1;fill:#ffffff;fill-opacity:1;stroke:#000000;stroke-width:1;stroke-miterlimit:4;stroke-dasharray:none;stroke-dashoffset:0;stroke-opacity:1" />
    <rect
       style="opacity:1;fill:#ffffff;fill-opacity:1;stroke:#000000;stroke-width:1;stroke-miterlimit:4;stroke-dasharray:none;stroke-dashoffset:0;stroke-opacity:1"
       id="rect6711"
       width="36.742172"
       height="36.742172"
       x="407.70267"
       y="276.54761" />
    <rect
       y="317.04282"
       x="358.19788"
       height="36.742172"
       width="36.742172"
       id="rect6689"
       style="opacity:1;fill:#ffffff;fill-opacity:1;stroke:#000000;stroke-width:1;stroke-miterlimit:4;stroke-dasharray:none;stroke-dashoffset:0;stroke-opacity:1" />
    <rect
       y="281.04282"
       x="412.19791"
       height="36.742172"
       width="36.742172"
       id="rect6713"
       style="opacity:1;fill:#ffffff;fill-opacity:1;stroke:#000000;stroke-width:1;stroke-miterlimit:4;stroke-dasharray:none;stroke-dashoffset:0;stroke-opacity:1" />
    <rect
       style="opacity:1;fill:#ffffff;fill-opacity:1;stroke:#000000;stroke-width:1;stroke-miterlimit:4;stroke-dasharray:none;stroke-dashoffset:0;stroke-opacity:1"
       id="rect6691"
       width="36.742172"
       height="36.742172"
       x="362.69305"
       y="321.53799" />
    <rect
       style="opacity:1;fill:#ffffff;fill-opacity:1;stroke:#000000;stroke-width:1;stroke-miterlimit:4;stroke-dasharray:none;stroke-dashoffset:0;stroke-opacity:1"
       id="rect6715"
       width="36.742172"
       height="36.742172"
       x="416.69302"
       y="285.53799" />
    <rect
       y="290.05246"
       x="421.20755"
       height="36.742172"
       width="36.742172"
       id="rect6701"
       style="opacity:1;fill:#ffffff;fill-opacity:1;stroke:#000000;stroke-width:1;stroke-miterlimit:4;stroke-dasharray:none;stroke-dashoffset:0;stroke-opacity:1" />
    <rect
       style="opacity:1;fill:#ffffff;fill-opacity:1;stroke:#000000;stroke-width:1;stroke-miterlimit:4;stroke-dasharray:none;stroke-dashoffset:0;stroke-opacity:1"
       id="rect6703"
       width="36.742172"
       height="36.742172"
       x="425.70267"
       y="294.54761" />
    <rect
       y="299.04282"
       x="430.19791"
       height="36.742172"
       width="36.742172"
       id="rect6705"
       style="opacity:1;fill:#ffffff;fill-opacity:1;stroke:#000000;stroke-width:1;stroke-miterlimit:4;stroke-dasharray:none;stroke-dashoffset:0;stroke-opacity:1" />
    <rect
       style="opacity:1;fill:#ffffff;fill-opacity:1;stroke:#000000;stroke-width:1;stroke-miterlimit:4;stroke-dasharray:none;stroke-dashoffset:0;stroke-opacity:1"
       id="rect6707"
       width="36.742172"
       height="36.742172"
       x="434.69302"
       y="303.53799" />
    <rect
       style="opacity:1;fill:#ffffff;fill-opacity:1;stroke:#000000;stroke-width:1;stroke-miterlimit:4;stroke-dasharray:none;stroke-dashoffset:0;stroke-opacity:1"
       id="rect6693"
       width="36.742172"
       height="36.742172"
       x="439.20755"
       y="308.05246" />
    <rect
       y="312.54761"
       x="443.70267"
       height="36.742172"
       width="36.742172"
       id="rect6695"
       style="opacity:1;fill:#ffffff;fill-opacity:1;stroke:#000000;stroke-width:1;stroke-miterlimit:4;stroke-dasharray:none;stroke-dashoffset:0;stroke-opacity:1" />
    <rect
       style="opacity:1;fill:#ffffff;fill-opacity:1;stroke:#000000;stroke-width:1;stroke-miterlimit:4;stroke-dasharray:none;stroke-dashoffset:0;stroke-opacity:1"
       id="rect6697"
       width="36.742172"
       height="36.742172"
       x="448.19791"
       y="317.04282" />
    <rect
       y="321.53799"
       x="452.69302"
       height="36.742172"
       width="36.742172"
       id="rect6699"
       style="opacity:1;fill:#ffffff;fill-opacity:1;stroke:#000000;stroke-width:1;stroke-miterlimit:4;stroke-dasharray:none;stroke-dashoffset:0;stroke-opacity:1" />
    <rect
       style="opacity:1;fill:#ffffff;fill-opacity:1;stroke:#000000;stroke-width:1;stroke-miterlimit:4;stroke-dasharray:none;stroke-dashoffset:0;stroke-opacity:1"
       id="rect6717"
       width="14.643492"
       height="14.643492"
       x="504.23849"
       y="310.88336" />
    <rect
       y="312.6749"
       x="506.03006"
       height="14.643492"
       width="14.643492"
       id="rect6719"
       style="opacity:1;fill:#ffffff;fill-opacity:1;stroke:#000000;stroke-width:1;stroke-miterlimit:4;stroke-dasharray:none;stroke-dashoffset:0;stroke-opacity:1" />
    <rect
       style="opacity:1;fill:#ffffff;fill-opacity:1;stroke:#000000;stroke-width:1;stroke-miterlimit:4;stroke-dasharray:none;stroke-dashoffset:0;stroke-opacity:1"
       id="rect6721"
       width="14.643492"
       height="14.643492"
       x="507.82162"
       y="314.46646" />
    <rect
       y="316.258"
       x="509.61313"
       height="14.643492"
       width="14.643492"
       id="rect6723"
       style="opacity:1;fill:#ffffff;fill-opacity:1;stroke:#000000;stroke-width:1;stroke-miterlimit:4;stroke-dasharray:none;stroke-dashoffset:0;stroke-opacity:1" />
    <rect
       style="opacity:1;fill:#ffffff;fill-opacity:1;stroke:#000000;stroke-width:1;stroke-miterlimit:4;stroke-dasharray:none;stroke-dashoffset:0;stroke-opacity:1"
       id="rect6725"
       width="14.643492"
       height="14.643492"
       x="511.41238"
       y="318.05722" />
    <rect
       y="319.84875"
       x="513.20392"
       height="14.643492"
       width="14.643492"
       id="rect6727"
       style="opacity:1;fill:#ffffff;fill-opacity:1;stroke:#000000;stroke-width:1;stroke-miterlimit:4;stroke-dasharray:none;stroke-dashoffset:0;stroke-opacity:1" />
    <rect
       style="opacity:1;fill:#ffffff;fill-opacity:1;stroke:#000000;stroke-width:1;stroke-miterlimit:4;stroke-dasharray:none;stroke-dashoffset:0;stroke-opacity:1"
       id="rect6729"
       width="14.643492"
       height="14.643492"
       x="514.99548"
       y="321.64032" />
    <rect
       y="323.43185"
       x="516.78699"
       height="14.643492"
       width="14.643492"
       id="rect6731"
       style="opacity:1;fill:#ffffff;fill-opacity:1;stroke:#000000;stroke-width:1;stroke-miterlimit:4;stroke-dasharray:none;stroke-dashoffset:0;stroke-opacity:1" />
    <rect
       y="325.23108"
       x="518.58624"
       height="14.643492"
       width="14.643492"
       id="rect6733"
       style="opacity:1;fill:#ffffff;fill-opacity:1;stroke:#000000;stroke-width:1;stroke-miterlimit:4;stroke-dasharray:none;stroke-dashoffset:0;stroke-opacity:1" />
    <rect
       style="opacity:1;fill:#ffffff;fill-opacity:1;stroke:#000000;stroke-width:1;stroke-miterlimit:4;stroke-dasharray:none;stroke-dashoffset:0;stroke-opacity:1"
       id="rect6735"
       width="14.643492"
       height="14.643492"
       x="520.37775"
       y="327.02261" />
    <rect
       y="328.81415"
       x="522.16931"
       height="14.643492"
       width="14.643492"
       id="rect6737"
       style="opacity:1;fill:#ffffff;fill-opacity:1;stroke:#000000;stroke-width:1;stroke-miterlimit:4;stroke-dasharray:none;stroke-dashoffset:0;stroke-opacity:1" />
    <rect
       style="opacity:1;fill:#ffffff;fill-opacity:1;stroke:#000000;stroke-width:1;stroke-miterlimit:4;stroke-dasharray:none;stroke-dashoffset:0;stroke-opacity:1"
       id="rect6739"
       width="14.643492"
       height="14.643492"
       x="523.96088"
       y="330.60571" />
    <rect
       y="414.77573"
       x="267.16052"
       height="36.431717"
       width="7.0272541"
       id="rect6743"
       style="opacity:1;fill:#000000;fill-opacity:1;stroke:#000000;stroke-width:1.09266734;stroke-miterlimit:4;stroke-dasharray:none;stroke-dashoffset:0;stroke-opacity:1"
       transform="matrix(1,0,0.66507806,0.74677384,0,0)" />
    <circle
       style="opacity:1;fill:#585858;fill-opacity:1;stroke:none;stroke-width:2;stroke-miterlimit:4;stroke-dasharray:none;stroke-dashoffset:0;stroke-opacity:1"
       id="path6745"
       cx="599.92786"
       cy="317.67697"
       r="5.9999781" />
    <text
       xml:space="preserve"
       style="font-style:normal;font-weight:normal;font-size:25px;line-height:125%;font-family:sans-serif;letter-spacing:0px;word-spacing:0px;fill:#000000;fill-opacity:1;stroke:none;stroke-width:1px;stroke-linecap:butt;stroke-linejoin:miter;stroke-opacity:1"
       x="133.30537"
       y="236.76422"
       id="text6747"
       sodipodi:linespacing="125%"><tspan
         sodipodi:role="line"
         id="tspan6749"
         x="133.30537"
         y="236.76422"
         style="font-size:20px">input</tspan><tspan
         sodipodi:role="line"
         x="133.30537"
         y="261.76422"
         id="tspan6751"
         style="font-size:20px">image</tspan></text>
    <text
       sodipodi:linespacing="125%"
       id="text6753"
       y="392.75674"
       x="169.21236"
       style="font-style:normal;font-weight:normal;font-size:17.5px;line-height:125%;font-family:sans-serif;letter-spacing:0px;word-spacing:0px;fill:#000000;fill-opacity:1;stroke:none;stroke-width:1px;stroke-linecap:butt;stroke-linejoin:miter;stroke-opacity:1"
       xml:space="preserve"><tspan
         style="font-size:17.5px;fill:#3366cc"
         id="tspan6757"
         y="392.75674"
         x="169.21236"
         sodipodi:role="line">convolution</tspan></text>
    <rect
       style="opacity:1;fill:none;fill-opacity:1;stroke:#3366cc;stroke-width:2;stroke-miterlimit:4;stroke-dasharray:none;stroke-dashoffset:0;stroke-opacity:1"
       id="rect6759"
       width="17.449263"
       height="17.449263"
       x="170.81911"
       y="343.37109" />
    <path
       style="fill:none;fill-rule:evenodd;stroke:#3366cc;stroke-width:1;stroke-linecap:butt;stroke-linejoin:miter;stroke-miterlimit:4;stroke-dasharray:4, 4;stroke-dashoffset:0;stroke-opacity:1"
       d="m 188.26837,342.9119 97.34852,8.26544"
       id="path6761"
       inkscape:connector-curvature="0" />
    <path
       inkscape:connector-curvature="0"
       id="path6763"
       d="m 188.26837,360.82035 97.34852,-9.64301"
       style="fill:none;fill-rule:evenodd;stroke:#3366cc;stroke-width:1;stroke-linecap:butt;stroke-linejoin:miter;stroke-miterlimit:4;stroke-dasharray:4, 4;stroke-dashoffset:0;stroke-opacity:1"
       sodipodi:nodetypes="cc" />
    <rect
       y="323.98459"
       x="283.0881"
       height="14.977432"
       width="14.977432"
       id="rect6767"
       style="opacity:1;fill:none;fill-opacity:1;stroke:#cc0000;stroke-width:1.71668363;stroke-miterlimit:4;stroke-dasharray:none;stroke-dashoffset:0;stroke-opacity:1" />
    <path
       inkscape:connector-curvature="0"
       id="path6769"
       d="m 298.06556,323.59044 80.34397,27.75817"
       style="fill:none;fill-rule:evenodd;stroke:#cc0000;stroke-width:0.85834181;stroke-linecap:butt;stroke-linejoin:miter;stroke-miterlimit:4;stroke-dasharray:3.43336735, 3.43336735;stroke-dashoffset:0;stroke-opacity:1"
       sodipodi:nodetypes="cc" />
    <path
       sodipodi:nodetypes="cc"
       style="fill:none;fill-rule:evenodd;stroke:#cc0000;stroke-width:0.85834181;stroke-linecap:butt;stroke-linejoin:miter;stroke-miterlimit:4;stroke-dasharray:3.43336735, 3.43336735;stroke-dashoffset:0;stroke-opacity:1"
       d="m 298.06556,338.96201 81.72155,11.92741"
       id="path6771"
       inkscape:connector-curvature="0" />
    <rect
       style="opacity:1;fill:none;fill-opacity:1;stroke:#3366cc;stroke-width:1.71668363;stroke-miterlimit:4;stroke-dasharray:none;stroke-dashoffset:0;stroke-opacity:1"
       id="rect6779"
       width="14.977432"
       height="14.977432"
       x="377.0881"
       y="327.98459" />
    <path
       sodipodi:nodetypes="cc"
       style="fill:none;fill-rule:evenodd;stroke:#3366cc;stroke-width:0.85834181;stroke-linecap:butt;stroke-linejoin:miter;stroke-miterlimit:4;stroke-dasharray:3.43336735, 3.43336735;stroke-dashoffset:0;stroke-opacity:1"
       d="m 392.06556,327.59044 83.09912,17.65596"
       id="path6781"
       inkscape:connector-curvature="0" />
    <path
       inkscape:connector-curvature="0"
       id="path6783"
       d="m 392.06556,342.96201 80.34398,1.36601"
       style="fill:none;fill-rule:evenodd;stroke:#3366cc;stroke-width:0.85834181;stroke-linecap:butt;stroke-linejoin:miter;stroke-miterlimit:4;stroke-dasharray:3.43336735, 3.43336735;stroke-dashoffset:0;stroke-opacity:1"
       sodipodi:nodetypes="cc" />
    <rect
       y="328.02545"
       x="466.74142"
       height="10.52596"
       width="10.52596"
       id="rect6785"
       style="opacity:1;fill:none;fill-opacity:1;stroke:#cc0000;stroke-width:1.20646465;stroke-miterlimit:4;stroke-dasharray:none;stroke-dashoffset:0;stroke-opacity:1" />
    <path
       inkscape:connector-curvature="0"
       id="path6787"
       d="m 477.26742,327.74843 58.40106,12.4084"
       style="fill:#cc0000;fill-rule:evenodd;stroke:#cc0000;stroke-width:0.60323232;stroke-linecap:butt;stroke-linejoin:miter;stroke-miterlimit:4;stroke-dasharray:2.41292947, 2.41292947;stroke-dashoffset:0;stroke-opacity:1"
       sodipodi:nodetypes="cc" />
    <path
       sodipodi:nodetypes="cc"
       style="fill:#cc0000;fill-rule:evenodd;stroke:#cc0000;stroke-width:0.60323232;stroke-linecap:butt;stroke-linejoin:miter;stroke-miterlimit:4;stroke-dasharray:2.41292947, 2.41292947;stroke-dashoffset:0;stroke-opacity:1"
       d="m 477.26742,338.55139 56.46478,0.96001"
       id="path6789"
       inkscape:connector-curvature="0" />
    <text
       xml:space="preserve"
       style="font-style:normal;font-weight:normal;font-size:17.5px;line-height:125%;font-family:sans-serif;letter-spacing:0px;word-spacing:0px;fill:#cc0000;fill-opacity:1;stroke:none;stroke-width:1px;stroke-linecap:butt;stroke-linejoin:miter;stroke-opacity:1"
       x="295.62259"
       y="391.36441"
       id="text6791"
       sodipodi:linespacing="125%"><tspan
         sodipodi:role="line"
         x="295.62259"
         y="391.36441"
         id="tspan6793"
         style="font-size:17.5px;fill:#cc0000">pooling</tspan></text>
    <text
       xml:space="preserve"
       style="font-style:normal;font-weight:normal;font-size:17.5px;line-height:125%;font-family:sans-serif;letter-spacing:0px;word-spacing:0px;fill:#000000;fill-opacity:1;stroke:none;stroke-width:1px;stroke-linecap:butt;stroke-linejoin:miter;stroke-opacity:1"
       x="372.73618"
       y="392.75674"
       id="text6795"
       sodipodi:linespacing="125%"><tspan
         sodipodi:role="line"
         x="372.73618"
         y="392.75674"
         id="tspan6797"
         style="font-size:17.5px;fill:#3366cc">convolution</tspan></text>
    <text
       sodipodi:linespacing="125%"
       id="text6799"
       y="391.36441"
       x="478.41116"
       style="font-style:normal;font-weight:normal;font-size:17.5px;line-height:125%;font-family:sans-serif;letter-spacing:0px;word-spacing:0px;fill:#cc0000;fill-opacity:1;stroke:none;stroke-width:1px;stroke-linecap:butt;stroke-linejoin:miter;stroke-opacity:1"
       xml:space="preserve"><tspan
         style="font-size:17.5px;fill:#cc0000"
         id="tspan6801"
         y="391.36441"
         x="478.41116"
         sodipodi:role="line">pooling</tspan></text>
    <text
       xml:space="preserve"
       style="font-style:normal;font-weight:normal;font-size:17.5px;line-height:125%;font-family:sans-serif;letter-spacing:0px;word-spacing:0px;fill:#000000;fill-opacity:1;stroke:none;stroke-width:1px;stroke-linecap:butt;stroke-linejoin:miter;stroke-opacity:1"
       x="548.41119"
       y="370.88174"
       id="text6805"
       sodipodi:linespacing="125%"><tspan
         sodipodi:role="line"
         x="548.41119"
         y="370.88174"
         id="tspan6807"
         style="font-size:17.5px;fill:#000000">fully </tspan><tspan
         sodipodi:role="line"
         x="548.41119"
         y="392.75674"
         style="font-size:17.5px;fill:#000000"
         id="tspan6809">connected</tspan></text>
    <path
       style="fill:none;fill-rule:evenodd;stroke:#000000;stroke-width:1;stroke-linecap:butt;stroke-linejoin:miter;stroke-miterlimit:4;stroke-dasharray:3, 3;stroke-dashoffset:0;stroke-opacity:1"
       d="m 539.0904,344.74866 34.89852,-7.80625"
       id="path6811"
       inkscape:connector-curvature="0"
       sodipodi:nodetypes="cc" />
    <path
       inkscape:connector-curvature="0"
       id="path6815"
       d="m 513.64114,310.97293 36.73528,-0.91838"
       style="fill:none;fill-rule:evenodd;stroke:#000000;stroke-width:1;stroke-linecap:butt;stroke-linejoin:miter;stroke-miterlimit:4;stroke-dasharray:3, 3;stroke-dashoffset:0;stroke-opacity:1"
       sodipodi:nodetypes="cc" />
    <path
       sodipodi:nodetypes="cc"
       inkscape:connector-curvature="0"
       id="path6817"
       d="m 571.74334,336.68763 29.38823,-12.85735"
       style="fill:none;fill-rule:evenodd;stroke:#000000;stroke-width:1;stroke-linecap:butt;stroke-linejoin:miter;stroke-miterlimit:4;stroke-dasharray:3, 3;stroke-dashoffset:0;stroke-opacity:1" />
    <path
       style="fill:none;fill-rule:evenodd;stroke:#000000;stroke-width:1;stroke-linecap:butt;stroke-linejoin:miter;stroke-miterlimit:4;stroke-dasharray:3, 3;stroke-dashoffset:0;stroke-opacity:1"
       d="m 548.57937,310.05454 51.42941,2.75515"
       id="path6819"
       inkscape:connector-curvature="0"
       sodipodi:nodetypes="cc" />
    <text
       sodipodi:linespacing="125%"
       id="text6840"
       y="236.76422"
       x="333.30536"
       style="font-style:normal;font-weight:normal;font-size:25px;line-height:125%;font-family:sans-serif;letter-spacing:0px;word-spacing:0px;fill:#000000;fill-opacity:1;stroke:none;stroke-width:1px;stroke-linecap:butt;stroke-linejoin:miter;stroke-opacity:1"
       xml:space="preserve"><tspan
         style="font-size:20px"
         y="236.76422"
         x="333.30536"
         id="tspan6842"
         sodipodi:role="line">feature</tspan><tspan
         style="font-size:20px"
         id="tspan6844"
         y="261.76422"
         x="333.30536"
         sodipodi:role="line">maps</tspan></text>
    <text
       xml:space="preserve"
       style="font-style:normal;font-weight:normal;font-size:25px;line-height:125%;font-family:sans-serif;letter-spacing:0px;word-spacing:0px;fill:#000000;fill-opacity:1;stroke:none;stroke-width:1px;stroke-linecap:butt;stroke-linejoin:miter;stroke-opacity:1"
       x="569.3877"
       y="261.76422"
       id="text6846"
       sodipodi:linespacing="125%"><tspan
         sodipodi:role="line"
         x="569.3877"
         y="261.76422"
         id="tspan6850"
         style="font-size:20px">output</tspan></text>
    <path
       style="fill:none;fill-rule:evenodd;stroke:#808080;stroke-width:0.97174144px;stroke-linecap:butt;stroke-linejoin:miter;stroke-opacity:1"
       d="m 229.55865,272.82731 c 2.48515,-2.87927 6.80717,-2.76409 6.80717,-2.76409 l 128.68805,0 c 0,0 3.78175,-0.34553 5.95434,-2.53376 2.17258,2.18823 5.95433,2.53376 5.95433,2.53376 l 128.68805,0 c 0,0 4.32202,-0.11518 6.80717,2.76409"
       id="path6877"
       inkscape:connector-curvature="0"
       sodipodi:nodetypes="ccccccc" />
  </g>
</svg>
